<svg width="400" height="400" viewBox="0 0 400 400" fill="none" xmlns="http://www.w3.org/2000/svg">
  <rect width="400" height="400" rx="200" fill="#2980FE"/>
  <path d="M279.8 195.9L217.9 134C214.5 130.6 209.8 128.7 204.9 128.7H143C138.1 128.7 133.4 130.6 130 134L120.2 143.8C116.8 147.2 114.9 151.9 114.9 156.8V218.7C114.9 223.6 116.8 228.3 120.2 231.7L182.1 293.6C185.5 297 190.2 298.9 195.1 298.9H257C261.9 298.9 266.6 297 270 293.6L279.8 283.8C283.2 280.4 285.1 275.7 285.1 270.8V208.9C285.1 204 283.2 199.3 279.8 195.9ZM200 242.8C176.9 242.8 158.1 224 158.1 200.9C158.1 177.8 176.9 159 200 159C223.1 159 241.9 177.8 241.9 200.9C241.9 224 223.1 242.8 200 242.8Z" fill="white"/>
</svg> 